<svg xmlns="http://www.w3.org/2000/svg" viewBox="0 0 640 360" role="img" aria-label="Minecraft Hide and Seek voxel map preview">
  <defs>
    <linearGradient id="bg" x1="0" y1="0" x2="0" y2="1"><stop stop-color="#0d1424"/><stop offset="1" stop-color="#0b0f1a"/></linearGradient>
    <filter id="glow" x="-80%" y="-80%" width="260%" height="260%"><feGaussianBlur stdDeviation="4" result="b"/><feMerge><feMergeNode in="b"/><feMergeNode in="SourceGraphic"/></feMerge></filter>
    <pattern id="pixels" width="24" height="24" patternUnits="userSpaceOnUse"><path d="M24 0H0V24" fill="none" stroke="#1e2a45" stroke-opacity=".26"/></pattern>
  </defs>
  <rect width="640" height="360" fill="url(#bg)"/><rect width="640" height="360" fill="url(#pixels)"/>
  <g transform="translate(124 43) skewY(-8)" stroke="#3b82f6" stroke-opacity=".42">
    <g fill="#111827"><rect x="0" y="0" width="72" height="48"/><rect x="72" y="0" width="48" height="96"/><rect x="120" y="48" width="96" height="48"/><rect x="216" y="0" width="48" height="96"/><rect x="264" y="0" width="120" height="48"/><rect x="0" y="96" width="48" height="96"/><rect x="48" y="144" width="120" height="48"/><rect x="168" y="96" width="48" height="96"/><rect x="216" y="144" width="96" height="48"/><rect x="312" y="96" width="72" height="96"/><rect x="0" y="192" width="120" height="48"/><rect x="120" y="192" width="48" height="72"/><rect x="168" y="240" width="144" height="24"/><rect x="312" y="192" width="72" height="72"/></g>
    <g fill="#18243a"><rect x="8" y="8" width="56" height="32"/><rect x="128" y="56" width="80" height="32"/><rect x="272" y="8" width="104" height="32"/><rect x="56" y="152" width="104" height="32"/><rect x="224" y="152" width="80" height="32"/></g>
  </g>
  <g shape-rendering="crispEdges" filter="url(#glow)">
    <g transform="translate(206 122)" fill="#22d3ee"><rect width="18" height="18"/><rect x="-4" y="18" width="26" height="28" fill="#0e7490"/><rect x="2" y="46" width="8" height="15"/><rect x="12" y="46" width="8" height="15"/></g>
    <g transform="translate(390 174)" fill="#ec4899"><rect width="20" height="20"/><rect x="-5" y="20" width="30" height="31" fill="#be185d"/><rect x="1" y="51" width="9" height="16"/><rect x="14" y="51" width="9" height="16"/></g>
    <g transform="translate(316 258)" fill="#f59e0b"><rect width="16" height="16"/><rect x="-3" y="16" width="22" height="24" fill="#b45309"/></g>
  </g>
  <g transform="translate(502 74)"><circle r="56" fill="#0b0f1a" stroke="#ec4899" stroke-opacity=".45"/><circle r="38" fill="none" stroke="#ec4899" stroke-dasharray="4 7"/><circle r="20" fill="none" stroke="#ec4899" stroke-opacity=".4"/><path d="M-56 0h112M0-56v112" stroke="#ec4899" stroke-opacity=".25"/><circle cx="-19" cy="13" r="5" fill="#22d3ee"/><circle cx="22" cy="-12" r="7" fill="#ec4899" filter="url(#glow)"/></g>
  <g font-family="monospace"><rect x="30" y="28" width="166" height="50" rx="7" fill="#111827" stroke="#3b82f6" stroke-opacity=".5"/><text x="48" y="50" fill="#9ca3af" font-size="10">HUNT_TIMER</text><text x="48" y="68" fill="#e5e7eb" font-size="16">08:42 REMAINING</text><rect x="446" y="282" width="160" height="44" rx="7" fill="#111827" stroke="#f59e0b" stroke-opacity=".5"/><text x="464" y="301" fill="#f59e0b" font-size="10">POWER_UP</text><text x="464" y="317" fill="#e5e7eb" font-size="10">WORMHOLE READY</text></g>
  <g stroke="#3b82f6" stroke-width="2" fill="none" opacity=".7"><path d="M14 34V14h20M606 14h20v20M626 326v20h-20M34 346H14v-20"/></g>
</svg>
